<svg xmlns="http://www.w3.org/2000/svg" viewBox="0 0 512 512" role="img" aria-label="RPN">
  <title id="rpn-logo-title">Reverie Playcraft Nexus</title>
  <rect x="16" y="16" width="480" height="480" rx="112" fill="#08111f"/>
  <path
    fill="#f8fafc"
    d="M88 388V153h95c64 0 99 32 99 82 0 38-21 65-54 77l75 76h-66l-67-67h-22v67H88Zm60-181v61h37c25 0 38-10 38-31 0-20-13-30-38-30h-37Z"
  />
  <path
    fill="#f8fafc"
    d="M299 388V215h57l63 96V153h56v235h-56l-64-98v98h-56Z"
  />
  <path
    fill="#4ade80"
    d="M189 126h121c68 0 106 36 106 93s-39 93-106 93h-35v98l-56-56V254h87c32 0 50-13 50-35 0-23-18-35-50-35h-59l-58-58Z"
  />
</svg>
